<?xml version="1.0" encoding="utf-8"?>
<!-- Generator: Adobe Illustrator 15.0.0, SVG Export Plug-In . SVG Version: 6.00 Build 0)  -->
<!DOCTYPE svg PUBLIC "-//W3C//DTD SVG 1.1//EN" "http://www.w3.org/Graphics/SVG/1.1/DTD/svg11.dtd">
<svg version="1.1" id="Layer_1" xmlns="http://www.w3.org/2000/svg" xmlns:xlink="http://www.w3.org/1999/xlink" x="0px" y="0px"
	 width="252.873px" height="266.496px" viewBox="0 0 252.873 266.496" enable-background="new 0 0 252.873 266.496"
	 xml:space="preserve">
<path fill="#F3F3F3" d="M155.074,261.896c5.933-1.429,12.152-7.067,13.367-12.502c1.215-5.434,1.643-6.223,3.43-6.084
	c1.788,0.148,2.432-0.139,3.861-2.78c1.429-2.652,5.146-3.865,5.361-8.44c0.143-1.646,0-2.287,3.002-2.573
	c3.002-0.285,4.504-1.499,5.718-3.569c1.216-2.079,5.004-4.574,0.43-7.799c-4.574-3.214-6.505-2.426-6.076-5.146
	c0.429-2.712,0.071-6.931-1.215-4.427s-0.144,3.786-1.716,3.786s-1.93-0.504-1.786,2.356c0.142,2.859,0.142,4.082-0.93,4.86
	c-1.072,0.789-1.359-0.424-1.359,2.573c0,3.007,0.858,4.723-1.786,5.65c-2.645,0.927-4.003-0.139-4.003,1.785
	c0,1.932,0.286,5.294-1.288,5.718c-1.572,0.434-2.357-0.71-3.145,1.577c-0.785,2.288-2,4.792-2.359,1.785
	c-0.357-2.998,1.145-3.076-0.857-3.5c-2.002-0.434-2.002,0.138-2.932-1.361c-0.929-1.498-1.643-3.145-1.643,0
	c0,3.146,0.5,6.646-0.787,6.438c-1.286-0.217-1.5,0.139-2.145-1.577c-0.644-1.716-0.5-2.504-1.643-2.573
	c-1.145-0.069-1.359-0.217-0.645,1.213s0.285,1.005,0.215,3.292c-0.072,2.287,0.319,3.432-1.697,3.648
	c-2.02,0.208-4.95,0.494-5.164-1.863c-0.216-2.356,0.07-3.432-0.787-3.283c-0.858,0.138,0.5,0.138-1.072,0.71
	c-1.573,0.572-2.216,1.36-1.717,2.001c0.5,0.642,0.715,0.927,0.715,1.785s0,1.006-1.857,1.145c-1.859,0.147-3.359,0.147-3.074-1.499
	c0.357-1.283,1.215-1.431,0.715-2.219c-0.5-0.779-1.787-1.213-2.359,1.222c-0.57,2.426-0.285,3.57-1.787,3.353
	c-1.5-0.207-1.358-0.493-1.43-3.283c-0.07-2.79,0-3.431-1.5-1.863c-1.502,1.578-1.359,0.789-3.576,0.789
	c-2.215,0-4.145,0.857-5.717-0.642c-1.573-1.498-0.858-0.284-0.43,1.499c0.43,1.785,0.43,4.645-0.143,4.575
	c-0.571-0.069-2.43,0.147-2.715-2.356c-0.287-2.505-0.644-2.435-0.573-4.506c0.072-2.07-0.5-1.282-1.429-0.217
	c0,0-0.358,1.356-0.999,1.517c-0.644,0.161-1.446-2.086-3.159-3.158c-1.714-1.07-1.716-0.91-0.59,0.858
	c1.124,1.767,3.051,4.817,1.767,5.139c-1.285,0.319-1.767,0.216-3.481-2.355c-1.712-2.569-2.355-2.837-3.157-4.552
	c0.909,2.73,2.035,6.801,0.696,6.801c-1.34,0-2.999,1.123-3.587-5.248c-0.59-6.37-1.66-1.553-1.66-0.75
	c0,0.804,2.196,6.158,0.375,5.516c-1.819-0.644-2.141-0.48-3.479-3.48c-1.072,1.284-1.446,2.356-0.483,3.963
	c0.964,1.605,2.838,4.872,1.982,5.513c-0.858,0.644-2.303,0.269-3.694-1.605c-1.393-1.873-2.411-6.372-3.213-6.746
	c-0.804-0.374-1.499-1.818-0.268-2.569c1.231-0.748,2.036-1.327,1.928-3.581c-0.106-2.254-0.59-3.541-1.714-4.289
	c-1.123-0.751-1.499-1.017-0.881,0.59c0.614,1.605,0.399,4.978-0.938,5.138c-1.338,0.161-1.178,1.393-1.714,2.356
	c-0.536,0.963-2.143,2.302-3.375-1.608c-1.231-3.906-3.318-3.424-3.854-3.745c-0.536-0.322-0.001-3.695-1.874-4.554
	c-1.875-0.854-2.678-1.177-3.587-2.515c-0.911-1.338-0.482-4.339-1.179-7.872c-0.695-3.532-1.659-4.174-2.034-2.837l-0.375,1.338
	c0,0-0.697,1.447-1.5-0.212c-0.803-1.659-0.911,0.908-2.411,0.212c-1.499-0.695-0.426-1.768-2.729-1.605
	c-2.303,0.16-1.446,1.232-2.946,2.678c-1.5,1.445-4.873,1.604-2.569,3.052c2.302,1.445,3.641,2.032,4.979,5.247
	c1.338,3.212,1.927,3.054,3.587,3.212c1.66,0.161,1.821,0,2.783,3.105c0.965,3.104,3.053,6.746,5.891,8.46
	c2.837,1.713,3.159,1.713,4.39,4.818c1.231,3.106,6.371,11.78,10.978,13.173c1.23,0.375,3.961,0.641,2.73-1.285
	c-1.231-1.928-3.696-4.871-2.57-5.301c1.124-0.429,2.998-1.337,4.122,1.072c1.123,2.408-0.107,6.104,2.141,6.905
	c2.248,0.805,3.481-0.105,4.391,1.927c0.912,2.036,3.105,3.963,6.746,3.963c3.64,0,6.639-5.246,8.513-4.925
	c1.875,0.321,1.659,2.086,4.017,1.659c2.354-0.428,2.943-2.303,4.926-1.338c1.979,0.963,5.834,4.979,9.207,4.819
	c3.373-0.162,3.27-2.999,5.141-2.891c1.874,0.104,4.392-0.269,5.729-2.143c1.339-1.874,1.821-4.818,4.014-6.586
	c2.196-1.767,5.142-3.963,4.927-2.141C160.27,254.551,155.074,261.896,155.074,261.896"/>
<path fill="#F3F3F3" d="M77.213,193.915c1.988,3.561,6.731,9.394,3.91,18.001C81.953,208.52,77.213,193.915,77.213,193.915"/>
<path fill="#F3F3F3" d="M119.27,218.581c0,0-4.088,4.691-3.785,6.105c0,0-0.151,0.201,0.758,0.757
	c0.434,0.264,0.759,0.563,1.128,0.862c0.817,0.657,1.01-0.189,0.962-0.846c-0.062-0.888-0.033-1.827,0.484-2.59
	C119.874,221.304,119.27,218.581,119.27,218.581"/>
<path fill="#F3F3F3" d="M114.829,217.346c-1.287,1.859-3.288,3.996-2.431,5.217c0.858,1.217,1.145,1.074,1.716-0.927
	C114.686,219.633,114.829,217.346,114.829,217.346"/>
<path fill="#F3F3F3" d="M108.917,216.155c-1.62,0.429-3.431,3.9-2.667,6.407c0.762,2.503,0.962,1.592,1.244,0
	C107.774,220.97,108.917,216.155,108.917,216.155"/>
<path fill="#F3F3F3" d="M103.771,212.678c-0.761,1.237-2.478,3.419-2.096,5.903c0.38,2.482,1.334,0.576,1.523-0.757
	C103.391,216.488,103.771,212.678,103.771,212.678"/>
<path fill="#F3F3F3" d="M99.388,210.962c1.329-1.067-3.527,2.667-3.527,4.193c0,1.524,1.43,2.534,1.763,1.076
	C97.959,214.772,98.91,211.344,99.388,210.962"/>
<path fill="#F3F3F3" d="M124.93,218.581c-1.255-0.465,0,4.683-0.858,5.535c-0.858,0.854-1.523,1.329-1.429,2.426
	c0.095,1.098,2.861,2.049,2.956,0.43C125.694,225.352,125.694,218.863,124.93,218.581"/>
<path fill="#F3F3F3" d="M128.712,219.157c0,2.192-0.73,8.592,0.89,8.681c1.621,0.088,5.432-0.009,2.954-1.296
	c-2.477-1.286-1.907-0.768-2.208-0.792c-0.301-0.025-0.251-0.494-0.251-2.241c0-1.746-0.478-4.555-0.829-4.555
	C128.918,218.954,128.712,219.157,128.712,219.157"/>
<path fill="#F3F3F3" d="M136.416,220.637c0.097,0.904,0.572,1.477,1.619,3.238c1.051,1.765,2.813,3.767,2.337,1.287
	c-0.478-2.478-1.096-4.528-2.573-5.051C136.32,219.587,136.416,220.637,136.416,220.637"/>
<path fill="#F3F3F3" d="M142.66,220.344c-1.379-0.666,1.763,2.245,1.859,3.342c0.092,1.097,1.189,1.454,0.618-0.346
	C144.565,221.541,143.042,220.526,142.66,220.344"/>
<path fill="#F3F3F3" d="M148.473,217.92c0.192,1.023,0.285,3,0,4.193c-0.285,1.19-1.573,2.098-0.238,2.098
	c1.336,0,2.289-0.056,2.525-1.648c0.239-1.593-0.594-5.12-1.559-5.549C148.234,216.584,148.326,217.138,148.473,217.92"/>
<path fill="#F3F3F3" d="M153.095,217.109c0.858,0.904,1.669,1.001,1.715,2.384c0.05,1.38,1.002,1.38,1.146,0
	c0.142-1.383,0.238-2.956-1.003-3.338c-1.236-0.38-2.364-0.002-1.857,0.709"/>
<path fill="#F3F3F3" d="M158.766,213.535c0.572,0.953,1.098,1.413,1.098,2.471c0,1.056,1.381,0.96,1.286-0.424
	c-0.097-1.379-1.715-3.238-2.384-3.238C158.098,212.344,158.766,213.535,158.766,213.535"/>
<path fill="#F3F3F3" d="M157.004,201.336c-0.121,2.285-0.548,5.098,1.465,5.29c2.014,0.189,2.824-0.572,1.68-1.383
	c-1.143-0.811-1.572-0.809-1.955-2.573C157.812,200.907,157.044,200.572,157.004,201.336"/>
<path fill="#F3F3F3" d="M162.387,202.956c-0.162,2.192-0.045,3.587,1.432,3.699c1.479,0.114,1.524-0.745,0.763-1.173
	c-0.763-0.43-0.572-0.812-1.19-2.051C162.77,202.193,162.428,202.428,162.387,202.956"/>
<path fill="#F3F3F3" d="M165.582,212.344c-0.685-1.061-0.525,2.621-1.098,3.432c-0.57,0.809-0.047,1.935,1.098,0.943
	C166.725,215.727,166.535,213.82,165.582,212.344"/>
<path fill="#F3F3F3" d="M179.449,192.47c-1.523,0.945-3.918,4.572-3.266,7.768c0.8,0.726,1.197-0.798,1.579-2.395
	C178.145,196.245,179.449,192.47,179.449,192.47"/>
<path fill="#F3F3F3" d="M98.935,203.217c-0.824,0.156-2.008,0.928-1.803,2.113c0.206,1.186,0.773,1.906,1.803,1.441
	c1.03-0.463,1.546-0.528,1.082-1.705C99.554,203.887,98.935,203.217,98.935,203.217"/>
<path fill="#F3F3F3" d="M95.278,202.915c0.051,1.334,0.669,2.415-0.669,2.672c-1.338,0.258-1.393,1.1-1.701,2.224
	c-0.308,1.125-1.492,1.331-1.543-0.267c-0.054-1.598,1.132-0.565,1.75-2.214c0.618-1.648,0.051-2.832,0.875-2.832
	C94.813,202.498,95.278,202.915,95.278,202.915"/>
<path fill="#F3F3F3" d="M91.362,217.538c0,1.7,0.773,1.7,0.773,1.416c0-0.283,0.822-1.901-0.773-1.608"/>
<path fill="#F3F3F3" d="M96.153,222.02c0,1.444,0.569,2.53,0.954,2.579c0.384,0.048,1.086,0.081,0.633-1.456
	C97.286,221.609,96.153,222.02,96.153,222.02"/>
<path fill="#F3F3F3" d="M100.48,224.39c-0.915,1.182,0.206,2.267,0.824,2.935c0.618,0.671,1.343,2.627,1.392,1.03
	C102.746,226.758,101.87,222.587,100.48,224.39"/>
<path fill="#F3F3F3" d="M106.069,226.965c0.222,0.847,0.798,1.495,0.951,2.576c0.154,1.08,0.722,3.141,1.082,3.141
	c0.362,0,0.623-1.03-0.257-2.214c-0.88-1.185-0.719-1.037-0.592-2.63C107.381,226.243,105.841,226.09,106.069,226.965"/>
<path fill="#F3F3F3" d="M111.04,227.838c0.018,1.344,0.411,1.598,0.257,2.887c-0.154,1.286-1.398,3.397-0.261,4.068
	c1.136,0.67,2.733,0.359,1.961-0.825c-0.773-1.184-1.253-1.803-1.117-2.884c0.138-1.081,0.963-2.475,0.498-3.246
	C111.916,227.068,111.033,227.326,111.04,227.838"/>
<path fill="#F3F3F3" d="M115.727,230.106c0.163,1.281,0.669,4.12,1.132,5.667c0.465,1.543,1.184-1.031,1.442-1.804
	c0.258-0.772,1.663-1.493,1.14-3.092C118.918,229.281,115.577,228.936,115.727,230.106"/>
<path fill="#F3F3F3" d="M122.421,232.011c0.429,0.874,0.205,1.289,1.184,1.495c0.978,0.205,0.824-0.051,0.824,1.03
	c0,1.08,0.362,1.075,1.211,1.723c0.852,0.647,1.52,0.185,1.057-1.361c-0.464-1.546-0.773-1.753-0.825-2.887
	c-0.051-1.133-2.008-1.648-2.781-0.978C122.318,231.703,122.185,231.529,122.421,232.011"/>
<path fill="#F3F3F3" d="M129.684,231.6c-0.068,1.493-0.41,4.989,0.465,4.941c0.875-0.049,0.359-0.562,1.184-1.078
	c0.824-0.515,0.979-0.724,1.03-1.392c0.05-0.668-0.05-0.515,0.669-0.925c0.723-0.414,1.443-0.981,0.877-1.547
	C133.34,231.033,129.713,230.986,129.684,231.6"/>
<path fill="#F3F3F3" d="M137.615,230.735c0.104,0.601,0.296,1.534,0.818,1.638s0.985,0.104,1.088,0.875
	c0.105,0.771,0.979,1.924,1.392,0.602c0.411-1.322,1.286-2.814,0-3.434C139.627,229.798,137.516,230.142,137.615,230.735"/>
<path fill="#F3F3F3" d="M143.806,230.088c0.753,0.181,0.405,1.206,0.353,2.182c-0.051,0.979,1.236,2.626,1.596,0.566
	c0.361-2.06,1.392-4.531,0-4.636C144.365,228.098,142.217,229.71,143.806,230.088"/>
<path fill="#F3F3F3" d="M148.641,228.196c-0.395,0.788,0.153,2.837,0,3.66c-0.156,0.825,0.772,0.727,0.977-0.846
	C149.824,229.436,149.156,227.162,148.641,228.196"/>
<path fill="#F3F3F3" d="M153.275,225.521c-0.105,0.825,0.67,0.979,0.928,1.444c0.256,0.462,1.337,0.566,1.337-0.723
	s0.413-3.243-0.462-2.032c-0.875,1.209-2.153,0.813-2.107,1.344"/>
<path fill="#F3F3F3" d="M158.992,222.562c-0.064,0.897-0.412,2.754,0.205,2.702c0.619-0.051,0.309,0.007,1.133-0.666
	c0.823-0.674,1.443-0.846,0.669-1.455c-0.772-0.608-0.521-1.072-1.188-1.176C159.146,221.865,159.055,221.662,158.992,222.562"/>
<path fill="#F3F3F3" d="M173.829,218.267c0.04,2.001,0.101,6.434-0.619,6.998c-0.722,0.565-1.237,1.756,0,1.058
	c1.235-0.697,1.957-1.969,1.905-4.448C175.063,219.392,173.811,217.399,173.829,218.267"/>
<path fill="#F3F3F3" d="M167.957,225.555c0.52,1.587,0.153,1.615-0.825,3.11c-0.979,1.492-0.807,2.06-1.821,1.905
	c-1.012-0.154-4.277-0.413-2.979-1.545c1.297-1.134,2.533-0.671,2.662-2.112C165.124,225.47,167.594,224.456,167.957,225.555"/>
<path fill="#F3F3F3" d="M149.656,237.935c0.404,0.834,0.395,1.186,0,2.68c-0.397,1.492,0.475,2.11,1.146,1.184
	c0.673-0.927,1.96-2.37,1.187-3.297C151.216,237.573,149.33,237.265,149.656,237.935"/>
<path fill="#F3F3F3" d="M86.729,225.16c0.138,1.385,0.824,0.932,0.978,2.191c0.157,1.26,0.773,1.832,1.392,2.062
	c0.618,0.227,1.236,0.046,1.236,1.321s0.876,1.02,0.669-0.887c-0.205-1.907,0.257-2.062-1.03-2.938
	c-1.287-0.875,0.155-1.132-1.34-2.06C87.142,223.925,86.626,224.13,86.729,225.16"/>
<path fill="#F3F3F3" d="M72.153,209.4c0.101,1.025,1.546,1.956,1.392,3.811c-0.155,1.854,0.823-1.238,0.771-2.729
	C74.266,208.986,71.896,206.773,72.153,209.4"/>
<path fill="#F3F3F3" d="M68.523,182.657c-0.048,1.51-1.51,2.607,0.864,2.483c2.373-0.121,4.443-1.061,5.114-1.017
	c0.669,0.043,2.191-0.364,1.095,1.025c-1.095,1.392-3.651,1.574-6.27,1.696c-2.618,0.122-3.288-0.852-4.567-1.581
	c-1.278-0.731-1.4-2.195,0-2.195S68.523,182.657,68.523,182.657"/>
<path fill="#F3F3F3" d="M44.365,161.643c-0.914-1.93,0.306,3.104,1.339,4.262c1.035,1.155,2.801,1.28,3.348,2.191
	c0.549,0.912,0.61-1.097-0.608-2.01C47.227,165.175,44.913,162.8,44.365,161.643"/>
<path fill="#F3F3F3" d="M92.955,8.425c-3.468,0.717,9.574-3.578,14.318-2.746C98.852,9.706,95.369,7.926,92.955,8.425"/>
<path fill="#F3F3F3" d="M212.965,92.588c-0.502,1.668,1.141-2.023,0.723-3.281c0.498-4.507,0.581-27.211,0.416-29.875
	c-1.752-23.79-12.184-28.457-13.938-30.378c-1.753-1.921-2.003-1.007-4.007-1.167c-2.004-0.171-5.256-4.009-7.01-4.929
	c-1.754-0.916-3.672-2.084-3.758-3.839c-0.082-1.751-1.248-2.418-3.252-3.087s-2.253-0.918-6.01-1.001
	c-3.756-0.084-3.256-1.001-5.424-2.588c-2.174-1.586-2.671-1.501-4.424-1.387c-1.755,0.113-2.004-0.197-2.17-1.7
	c-0.168-1.501-1.67-2.086-4.34-2.336c-2.672-0.25-5.51-1.752-8.014-2.171c-0.25,1.334-0.832,1.503,0.5,1.588
	c1.336,0.083,4.091,0.583,5.092,2.251c1.002,1.669,0.918,2.839,3.006,4.424c2.086,1.586,2.168,2.504-0.752,2.421
	c-2.92-0.083-4.006-3.255-4.924-5.258c-0.92-2.003-1.418,2.587-2.003,5.591s-2.839,0.417-3.591-0.917
	c-0.748-1.335-1.084-0.25-2.168-0.584c-1.918-2.337,1.67-3.088,3.172-3.756c1.503-0.667,0.168-1.921-1.672-2.838
	c-1.834-0.918-1.083-2.922-1.083-2.922h-36.722c-0.505,4.735-4.626,3.446-7.673,5.527c-3.049,2.082-3.72,0.966-7.064,1.487
	c-3.346,0.521-3.569,0-4.537,1.412c-0.965,1.413-3.123,0.819-9.442,1.04c-6.319,0.224-6.99,2.158-8.402,3.942
	c-1.414,1.784-2.455,0.075-2.528-1.859c-0.074-1.935-0.968,0.595-2.676,1.709c-1.71,1.116-1.858,1.413-0.298,1.934
	c1.563,0.521,1.041,1.708-1.487,2.304c-4.314,1.637-7.212,5.507-8.254,7.509c-1.041,2.013-2.23,1.189-1.932-1.189
	c0.297-2.379-0.373-1.486-1.339,0.079c-0.966,1.556-1.266,1.933-3.867,3.339c-2.601,1.419-2.08,1.123,0.893,2.757
	c2.975,1.636,0.893,1.487-3.791,7.354c-4.685,5.878-6.396,10.042-7.66,13.232c-1.264,3.203-1.116,3.5-1.042,8.773
	c0.744-3.864,0.986-2.469,1.433,1.694c0.445,4.165-0.789-0.651-1.682,3.363c-0.892,4.014,0.28,2.715-0.388,5.175
	c-0.67,2.448,3.825-3.889,3.751-5.821c-0.074-1.933-4.886,3.159-5.627,0.711c-0.743-2.459-1.204-1.851-2.319-2.96
	c-1.561,6.691,1.933,29.885,1.933,33.089c0,3.19,2.229-0.149,2.156,2.23c-0.075,2.378,1.19,1.337,2.158,1.041
	c0.965-0.299,1.262-1.784,2.823-1.784c1.562,0,1.562,1.12,1.562,3.499c0,2.38,0.967,2.002,1.265,0.445
	c0.298-1.567,2.752-1.201,2.676,2.231c-0.074,3.421,0.222,3.19,1.784,4.677c1.561,1.486,1.636,1.716,0.595,4.839
	c-1.041,3.121-4.312,9.88-6.246,14.719s0.818,8.259,1.339,10.638c0.521,2.376,1.709-0.895,1.562-3.272
	c-0.15-2.379,0.594-5.877,1.933-8.337c1.34-2.448,2.603-2.448,3.346-1.339c0.743,1.12-0.073,2.836,0.147,6.771
	c0.224,3.945-0.667,1.932-2.378,2.904c-1.709,0.96-0.893,6.096-0.744,10.029c0.148,3.947-0.973,2.221-2.333,2.288
	c-1.364,0.08-1.968,1.362-3.483,3.559c-1.514,2.195,2.647-0.675,3.557-1.591c0.909-0.902,0.758,0.982,0.985,3.637
	c0.226,2.654-1.288,1.362-1.438,4.461c-0.152,3.112,1.816,2.426,4.527,4.78c2.709,2.346,2.739,3.181,3.573,5.297
	c0.833,2.115-0.531,2.196-2.649,0.605c-2.12-1.591-0.152,2.425,1.515,4.541c1.665,2.116,1.665,0.686,1.514-0.309
	c-0.151-0.984,0.151-1.887,1.969-0.904c1.815,0.983,1.891,0.605,2.195,4.164c0.303,3.557,0.908,2.196,1.362,1.291
	c0.455-0.913,0-1.371,1.06-2.354c1.059-0.985,2.043,0.158,3.331,1.144c1.286,0.982,1.968,1.13,2.043,3.248
	c1.591,0.536,6.285-0.447,8.479-0.377c2.196,0.079,1.212,2.731,1.438,2.801c0.228,0.08,2.273,0.08,3.029-1.361
	c0.757-1.439,1.21-1.36,3.784-0.98c2.574,0.373,2.574-0.38,3.105,1.439c0.529,1.83,0.984,2.573,2.648,2.573
	c1.667,0,1.44-0.16,1.515-1.144c0.076-0.985,0.303-1.202,1.969-1.43c1.667-0.219,1.967-0.311,2.271-1.214
	c0.304-0.915-0.151-0.685-1.134-0.755c-0.985-0.079-0.532-0.377-1.061-1.213c-0.529-0.832-4.392,0-6.056,0
	c-1.667,0-1.212-0.832-1.816-2.045c-0.606-1.214-11.508-0.608-15.368-0.458c-3.86,0.16-5.071-2.574-5.299-3.935
	c-0.228-1.362,1.589-1.511,3.104,0.605c1.515,2.115,9.159,1.062,14.082,1.213c4.919,0.147,13.246-0.229,15.898-0.755
	c2.649-0.538,3.708-0.756,4.085,0.228c0.379,0.985-0.377,1.43-2.346,2.116c-1.968,0.688-0.909,0.527-0.833,2.425
	c0.077,1.889,0.152,1.134-0.906,1.739c-1.061,0.608-0.532,0.685-0.154,2.572c0.379,1.889,0.457,0.607,1.666,3.102
	c1.213,2.503-0.15,0.982-2.196,1.144c-2.043,0.146,0.76,1.509,2.5,1.817c1.74,0.297,2.573,1.966,3.859,4.461
	c1.288,2.494,0,1.292-1.514,1.292c-1.514,0-0.529,0.605-0.682,2.195c-0.152,1.591-0.757,0.825-1.816-0.161
	c-1.061-0.982-1.135-0.227-1.211,1.145c-0.076,2.265,1.664,1.74,1.664,1.74c1.439,1.063,1.591,0.066,1.968,3.406
	c0.379,3.328,0.379,2.872,1.742,3.855c1.363,0.982,0.453-1.888,0.378-4.461c-0.076-2.573,0.985-3.259,1.666-3.259
	c0.682,0,2.422,1.968,2.574,4.619c0.151,2.654-0.377,1.671-1.059,3.478c-0.684,1.819-0.152,1.441,0.831,2.574
	c0.984,1.145,1.514,0.767,1.489-0.755c-0.023-1.51,0.025-1.214,1.008-2.951c0.984-1.738,1.061-1.28,1.288-3.031
	c0.226-1.738,2.574-1.657,2.65,0.229c0.077,3.029-0.076,2.573-1.211,3.557c-1.138,0.982-1.969,1.063-2.424,3.557
	c-0.455,2.504,0.681-0.675,2.271,0c1.591,0.686,1.664,1.818,3.027,1.818c1.365,0,0.456-1.211-0.15-1.51
	c-0.605-0.309-0.151-1.818-0.151-3.26s0.151-3.557,0.226-5.294c0.078-1.74,1.441-0.687,2.423,0.228
	c0.983,0.904,0.53,1.51,0.454,4.838c-0.073,3.341,0.303,2.426,1.438,3.341c1.135,0.902,1.211-0.836,1.062-2.654
	c-0.152-1.818,0.605-1.133,0.605-3.099c0-1.968,1.439-2.653,2.573-2.276c1.135,0.378,0.377,3.099,0.228,5.294
	c-0.151,2.196-0.607,1.82-2.271,3.49c-1.667,1.657-0.455,2.343,0.604,2.573c1.061,0.228,0.91-0.985,2.27-1.51
	c1.365-0.539,1.818-0.617,2.123,0.982c0.301,1.591,0.682,1.052,1.512-0.08c0.834-1.131,1.818-0.079,2.728,0.676
	c0.907,0.768,1.21-0.823,0.304-2.312c-0.909-1.475-2.122-1.246-2.195-2.457c-0.078-1.201-0.229-2.873-0.836-4.084
	c-0.605-1.213,0.049-1.772,0.049-1.772c-0.07-2.597,3.858-1.933,3.858-0.229c0,1.716-0.073,3.121,0.075,6.46
	c0.148,3.34,1.855,1.111,2.744-0.147c0.889-1.269,0.15-4.827-0.666-7.194c-0.818-2.38-0.818-1.119-1.188-3.568
	c-0.088-0.565,0.075-0.956,0.369-1.201c-1.769,0.911-4.01,1.61-6.181,1.61c-2.506,0-3.342-0.557-5.012-1.578
	c-1.671-1.022-3.157,0.648-5.384,2.134c-2.227,1.486-3.062-1.854-4.455-2.503c-1.392-0.651-0.464-1.392-0.464-3.079
	c0-1.687-1.485-1.749-1.855-0.54c-0.371,1.205-1.486,0.092-2.878-0.465c-1.392-0.559-1.301-6.219-1.579-9.188
	c-0.277-2.972,0.558-3.437,1.485-3.527c0.929-0.094,1.3,4.548,1.206,6.311c-0.091,1.762,0.094,3.248,1.672,3.991
	c0.094-2.319,3.342-9.19,4.456-11.417c1.113-2.228,2.97-5.197,2.97-6.495c0-1.301-3.434,1.671-5.476,2.691
	c-2.041,1.021-3.527,3.062-5.013,2.877c-1.485-0.186,6.407-7.891,7.242-9.282c0.836-1.392,2.134-5.197,1.763-8.075
	c-1.765,5.384-10.952,10.397-12.438,11.498c-1.483,1.104-3.062-1.565-4.733-2.216c-1.671-0.649-2.877,0.65-3.712,1.729
	c-0.836,1.079-5.105,0.036-7.798,0c-2.691-0.033-3.061-1.913-3.989-3.212c-0.929-1.3-1.856,0.556-1.245,2.041
	c0.613,1.486-0.521,1.207-5.902,1.021c-5.382-0.186-9.467-2.044-10.488-3.621c-1.021-1.577-3.341-1.579-4.733-1.765
	c-1.393-0.186-1.579-0.092-2.32-1.206c-0.745-1.115-1.856-0.556-3.712-1.021c-1.856-0.465-0.836-2.228-0.094-3.619
	c0.743-1.392,0.649-0.927,0.649-1.855c0-0.928,0.558-1.577-0.834-2.412c-1.393-0.836,0.464-2.786,1.95-3.063
	c1.484-0.279,0.927-1.95-0.465-2.971s-0.465-1.856-0.465-3.898c0-2.041,0.744-2.689-1.206-4.081
	c-1.949-1.392-0.464-2.32-0.742-6.034c-0.279-3.712-0.557-3.897-0.745-5.659c-0.185-1.763,0.279-3.435,0.929-3.248
	c0.649,0.185,0.65,2.968,1.949,3.248c1.299,0.278,3.062-4.732,5.043-7.147c1.982-2.413,4.794-2.783,7.115-2.968
	c2.319-0.186,0.834-1.021-0.094-1.689c-0.928-0.666-2.134-2.488-1.949-0.912c0.185,1.578-1.485,0.836-3.632,0.188
	c-2.146-0.65-1.844-1.857,0.569-2.136s1.577-1.765,0.372-2.506c-1.207-0.742-1.3-1.763,0-1.672
	c1.299,0.094,9.559,5.293,10.579,6.499c1.021,1.207-1.855,2.598,0.929,2.783c2.785,0.186,8.724,5.198,14.849,6.59
	c-1.392-1.763-11.601-6.681-13.551-7.425c-1.947-0.742-0.185-1.856,3.992-1.856c4.175,0,9.932,7.24,11.695,10.211
	c1.764,2.969,4.918,3.989,8.26,5.01c3.342,1.021,2.413,0.095,4.083,0.56c1.671,0.464,5.664,3.339,6.961,2.876
	c1.3-0.464-5.974-6.732-7.879-6.924c-1.908-0.19-2.859-1.717-4.957-3.622c-2.095-1.907-3.242-1.526-5.909-3.241
	c-0.382-10.674-6.672-20.017-8.389-22.684l-0.183-0.398c9.63,6.607,11.142,14.251,11.799,17.651
	c0.662,3.398,0.474,4.057,2.644,4.151c2.171,0.093,3.022,0.283,4.438,3.304c1.417,3.02,2.927,2.927,5.663,3.491
	c2.738,0.567,1.983,0.567,2.549,3.494c0.567,2.926,2.455,0.471,3.774-1.133c1.323-1.606,0.755,0.849-0.942,3.304
	c-1.701,2.453,0.283,3.018,3.396,3.018c3.117,0,3.4-1.035,5.476-2.358c2.077-1.322,1.51,1.227,3.514,1.227
	c2.001,0,3-0.093,3.567-1.604c0.565-1.513,0.756,1.226,2.549,3.587c1.794,2.358,3.775,2.736,6.514,2.547
	c4.059-0.188,14.818-5.285,17.936-7.269c3.113-1.982,12.838-5.947,15.48-6.985c2.646-1.037,3.494-2.266,3.682-4.531
	c0.189-2.265,7.27-1.983,9.723-1.983c2.454,0,3.209-0.094,3.683-1.604c0.472-1.513,1.511-1.039,3.585,0.283
	c2.078,1.321,3.494,4.153,4.156,6.514c0.66,2.359,1.604,2.831,1.604,5.192c0,2.358,1.793,2.642,1.605,1.226
	c-0.189-1.414,1.037-2.642-0.473-3.871c-1.51-1.226,0.283-1.981,1.699-1.981s1.604,0.756,1.51,3.211
	c-0.094,2.452,0.85,1.132,0.85,2.548c0,1.417,0.189,1.982-1.511,3.398c-1.697,1.415-0.378,4.623-0.466,7.833
	c-0.092,3.21-0.193,1.511-2.08,3.589c-1.888,2.076-0.38,4.246-1.041,6.417c-0.662,2.172-0.094,1.511,1.699,1.984
	c1.795,0.471,0.19,1.697-0.564,2.359c-0.756,0.661,0.281,2.265,1.414,2.265s0.473,0.945-1.037,2.265
	c-1.51,1.322-3.4,2.926-5.381,5.476c-1.984,2.55-3.494,0.283-5.76,0.283c-2.264,0-3.113,0.85-4.813,1.983
	c-1.7,1.133-3.397,0.756-6.514,0.943c-3.114,0.189,0.849-2.549,3.116-2.927c2.266-0.378,2.075-0.942,2.171-2.454
	c0.095-1.511-1.89-1.228-3.964-1.321c-2.079-0.096,0.094-1.606,1.226-1.887c1.134-0.284,0.567-1.513-0.378-2.455
	c-0.942-0.945-1.888,1.416-3.494,2.832c-1.603,1.417-1.227-3.305-2.169-4.342c-0.944-1.039-0.376,5-0.659,6.984
	c-0.285,1.982-4.345,0.755-6.516,1.039c-2.17,0.284-1.604,1.794-3.586,2.549s-2.359,0.565-1.889,1.794
	c0.471,1.227,4.721,0.377,6.326-0.189c1.604-0.568,3.02-0.568,4.059,0.471c1.036,1.039-1.227,2.171-2.076,2.455
	c-0.851,0.284-5.193,0.284-9.158,0c-3.965-0.282-2.831-1.604-4.246-1.888c-1.416-0.283-2.268,0.942-3.494,2.265
	c-1.229,1.323,1.982,2.266,3.115,1.981c1.131-0.283,1.135-0.755,3.115-0.849c1.984-0.094,13.687,0.755,16.896,0.755
	c3.209,0,6.892-0.849,8.024-1.698c1.134-0.849,2.737-3.021,3.397-2.267c2.172,1.606-1.888,4.72-2.736,6.213
	c-0.849,1.489-2.455,0.773-5.382,0.679c-2.926-0.094-11.798,0.095-14.632,0c-2.832-0.094-6.23,2.548-8.494,2.548
	c-2.266,0-1.229,0.379-2.927-1.226c-1.699-1.605-1.89-1.416-3.778-2.001c-1.887-0.586-0.941-2.058-2.925-2.532
	c-1.981-0.471-1.981-0.28-3.114-1.51c-1.133-1.226-0.852-1.98-3.588-2.549c-2.738-0.565-2.172-1.887-2.455-3.869
	c-0.281-1.982-0.094-2.361,1.039-2.265c1.133,0.094,2.736,1.888,4.248,3.963c1.51,2.078,4.625,5.004,5.664,5.949
	c1.037,0.942,3.02,0.564,2.832-1.323c-0.189-1.887-8.023-6.513-9.912-8.307c-1.887-1.794-2.979-2.918-4.188-4.866
	c-1.206-1.95-2.968-3.342-5.104-4.642c-2.133-1.3-2.41-4.176-2.969-5.191c-0.556-1.015-0.371,6.771-0.371,9.092
	s-0.369,1.298-1.909,1.298c-1.538,0-0.597-2.134-1.897-2.878c-1.298-0.741-0.092-3.989,0.559-5.198
	c0.647-1.205,0.556-2.688-0.744-2.688c-1.948-0.186-0.927,4.175-1.113,7.609s-0.093,1.393-1.207,2.043
	c-1.485,0.741-1.95,2.598-4.27,5.104c-2.319,2.506-1.578,3.897-0.648,3.341c0.926-0.556,2.413-0.094,1.113,2.042
	c-1.301,2.136,1.577,2.042,1.95,1.948c0.37-0.092,1.392-1.392,2.969-3.898c1.578-2.506,2.599-1.206,3.898-0.465
	c1.299,0.744,1.856,0.187,2.691-0.835c0.835-1.02,2.414-0.276,3.156,1.396c0.741,1.669,2.133,2.688,3.804,4.916
	c1.672,2.227,3.435,1.482,4.269,2.691c0.836,1.205,0.56,4.268,1.022,6.556c0.464,2.288,1.671,3.932,1.95,6.345
	c0.277,2.412-1.393,3.154-2.508,3.618c-1.111,0.463-0.555,3.713-0.834,5.475c-0.277,1.766-3.064-1.205-3.435-2.505
	c-0.373-1.301-1.392,0.649-3.247,1.765c-0.119,0.068-0.246,0.136-0.369,0.205c1.117-0.364,3,0.474,3,2.021
	c0,2.299,0.744,5.788,0.447,8.614c-0.298,2.812,1.187,3.178,2.67,2.893c1.484-0.298-0.369-5.571-0.223-7.651
	c0.149-2.071,2.227-1.921,3.338-0.297c1.113,1.635-0.371,5.341-0.072,7.948c0.295,2.595,2.076-0.972,3.114-3.718
	c1.037-2.745-0.075-4.815,0.89-7.114c0.963-2.31,2.521-1.12,2.818,1.26c0.297,2.365-0.148,4.23-0.815,6.083
	c-0.667,1.854-1.335,1.773-1.188,2.598c2.081,1.325,3.711-1.716,4.082-4.6c0.371-2.893,0.24-2.882,1.631-5.146
	c1.39-2.264,1.392-1.475,1.392-4.517c0-3.043,1.217-2.002,0.521-2.779c-0.694-0.789-0.521-2.174-0.781-4.267
	c-0.262-2.082,3.651-3.476,4.259-4.176c0.608-0.696-0.607-0.604-0.436-1.646c0.697-2.347,6.349-2.699,11.652-2.699
	c5.303,0,1.044,0.605-1.913,2.229c-2.954,1.613-5.996,0.733-7.824,1.774c-1.827,1.041,1.999,1.829,4.086,1.475
	c2.086-0.342,1.999-2.003,9.304-2.082c7.305-0.091,4.778,1.132,6.864,1.224c2.086,0.081,1.002-2.677,1.586-4.175
	c0.586-1.497,2.672-1.749,5.259-0.914c2.585,0.834-0.503,1.497-1.587,2.757c-1.084,1.269,4.174-1.43,6.094-2.609
	c1.918-1.178,8.094-8.417,10.514-10.418c2.422-2.002,1.336-2.837,0.586-2.424c-1.922,0.502-11.434,10.852-13.02,12.27
	c-1.586,1.419-1.671,0.081,0.332-2.584c2.002-2.677,11.101-12.856,13.439-14.194c2.337-1.327,1.668-1.327,1.668-4.746
	c0-3.432,0.418-2.093-1.416-2.927c-1.836-0.835-2.086-0.583-2.086-2.507c0-1.92,1.333-3.087,4.171-0.833
	c2.839,2.252,1.921,4.837,2.004,7.183c0.083,2.333,1.503,2.083,1.503,0c0-2.094,0-4.678-0.668-7.183
	c-0.668-2.506-3.59-2.837-5.094-2.804c-1.5,0.037-0.668-1.782,0.336-2.617c1-0.836,0.753-3.009-0.584-3.592
	c-1.334-0.584,0-3.341,0.418-7.264c0.416-3.922,2.002-2.584,3.338-4.061c1.334-1.463-0.836-1.862-1.669-0.858
	c-0.835,0.997-1.335,1.752-1.003-1.418c0.335-3.178,0.668-5.511,0.335-9.435c-0.335-3.923-3.339-8.84-3.422-11.266
	c-0.085-2.413,1.336-5.01,2.337-6.919c1.003-1.922,1.25-2.172,2.254-4.095C209.262,96.902,212.102,93.802,212.965,92.588
	 M54.296,63.053c3.898-2.463,4.679,3.607,5.251,5.584c0.571,1.977-0.763,4.505-3.05,5.458c-2.288,0.951-0.095-3.627-0.938-6.072
	C54.716,65.58,52.439,64.226,54.296,63.053 M53.585,91.822c-1.958-0.381-6.866-6.616-4.902-8.578
	c1.525-1.524,7.052,1.716,7.949,5.338c0.898,3.622,2.534,4.574,3.678,7.051C58.214,94.491,55.544,92.204,53.585,91.822
	 M128.712,125.883c-0.663,2.076-1.694,1.604-1.883,3.964c-0.19,2.359-1.51,2.359-2.077,1.794c-0.565-0.566-0.378-6.607,0-8.213
	c0.376-1.604,1.039-4.249,0-5.946c0,0-0.094-1.323,0.945-0.472C128.527,118.237,129.377,123.806,128.712,125.883 M134.403,113.501
	c-1.013,2.058-0.773,2.176-0.594,4.796c0.179,2.622-1.372,7.688-2.205,9.176c-0.418-1.609-0.356-6.019-0.298-9.713
	c0.059-3.695-0.298-4.946,0.653-7.627c0.953-2.683,0.775-9.176,0.775-10.606C132.735,99.528,137.443,104.892,134.403,113.501
	 M155.146,123.24c-3.49,3.492-5.939,7.874-11.421,7.741c-7.778-0.19-8.333-6.642-8.333-6.642c1.818,1.259,4.462,3.053,7.484,1.731
	c3.02-1.32,7.553-7.457,10.856-8.873s13.593-1.606,16.235-1.323C165.249,118.047,158.641,119.747,155.146,123.24 M147.485,195.338
	c2.893-3.619,1.808-8.2,1.565-9.887c0,0,1.086,0.362,2.654,4.22c1.205-1.204,0.965-1.448,2.771-4.22
	C154.477,192.926,151.223,193.77,147.485,195.338"/>
<path fill="#F3F3F3" d="M81.245,162.416c-0.844,0.23-2.148-1.843-4.146-3.072c-1.996-1.227,0.001,3.763,2.457,5.527
	c2.457,1.767,5.067,0,6.066-0.846c0.996-0.844-1.152-1.534-1.305-3.146c-0.154-1.613-0.154-1.994-1.689-2.225
	c-1.536-0.23-0.308-0.923-1.383-0.769C80.17,158.038,82.733,162.01,81.245,162.416"/>
<path fill="#F3F3F3" d="M245.362,65.582c0-0.613,0.661-1.184,1.367-1.233c-0.329-0.186-0.44-0.493-0.03-0.795
	c2.633-1.945,3.324-5.095,4.791-7.885c0.16-0.303,0.408-0.433,0.664-0.443c0.01-0.04,0.023-0.08,0.033-0.121
	c-0.021-0.04-0.044-0.079-0.061-0.125c-0.254-0.699-0.568-1.295-0.604-2.043c-0.043-0.899,0.726-0.671,1.082,0.026
	c0.211-1.415,0.304-2.877,0.256-4.393c-0.44-0.921-0.53-2.02-0.271-3.014c-0.363-2.529-1.096-5.183-2.216-7.948
	c-0.951-0.752-1.429-1.954-1.43-3.159c-0.22-0.439-0.453-0.88-0.692-1.325c-1.223-0.657-1.864-1.954-1.924-3.284
	c-0.268-0.423-0.557-0.852-0.843-1.28c-0.122,0.021-0.259,0.014-0.407-0.033c-0.766-0.242-1.523-0.318-2.143-0.886
	c-0.727-0.667,0.1-1.683,0.881-1.47c-0.477-0.65-0.973-1.305-1.492-1.965c-0.879-0.295-2.059-0.888-2.451-1.377
	c-1.02-1.272-2.355-3.833-3.272-5.193c-5.353-5.609-12.157-11.493-20.64-17.604c-0.771-0.102-0.926,0-1.138,0.749
	c3.138,3.787,5.776,7.28,7.981,10.509c0.813,0.606,1.611,1.217,2.316,1.717l-0.817-0.064c0.44,0.312,0.339,0.538,0.015,0.621
	c0.172,0.268,0.332,0.528,0.498,0.792c0.607,0.067,0.846,0.664,0.713,1.148c2.484,4.094,4.193,7.707,5.235,10.883
	c0.669,0.848,0.947,1.98,0.833,3.066c0.184,0.866,0.314,1.699,0.392,2.492c0.192,0.353,0.326,0.739,0.41,1.136
	c0.306,0.197,0.612,0.393,0.915,0.593c0.821,0.542-0.168,2.204-1.071,2.254c-0.07,0.848-0.36,1.672-0.909,2.312
	c-0.43,1.209-1.037,2.286-1.789,3.242c-0.033,0.507-0.096,1.013-0.212,1.514c-0.188,0.805-1.128,0.782-1.544,0.291
	c-1.893,1.6-4.299,2.745-6.978,3.533c-1.752,2.244-5.083,2.898-7.828,1.982c-0.546,0.325-1.214,0.517-2.007,0.517
	c-0.854,0-1.562-0.224-2.129-0.594c-0.35,0.099-0.732,0.157-1.152,0.157c-0.893,0-1.625-0.247-2.203-0.647
	c-2.814-0.146-5.488-0.46-7.805-0.854c-0.069,0.286-0.129,0.57-0.182,0.853c-0.111-0.131-0.229-0.258-0.348-0.382l3.691,18.472
	c0.82,3.204,1.262,6.568,0.534,10.299c8.19,1.39,16.244,1.277,23.462-0.149c0.619-0.554,1.462-0.907,2.535-0.907
	c0.332,0,0.641,0.035,0.93,0.099c2.037-0.545,3.998-1.194,5.854-1.957c0.538-0.516,1.261-0.874,2.168-0.963
	c2.102-1.002,4.049-2.154,5.818-3.443c0.447-0.925,1.247-1.666,2.403-1.935c0.454-0.405,0.89-0.823,1.312-1.25L245.362,65.582z
	 M204.777,71.771l-0.184-1.81c10.859,0.69,19.912-0.424,26.919-3.311c6.306-2.6,10.851-6.56,13.511-11.771
	c1.139-2.227,1.861-4.567,2.234-6.938c-0.255,2.584-0.911,5.172-2.055,7.666C242.057,62.465,232.625,73.633,204.777,71.771z"/>
<path fill="#F3F3F3" d="M7.008,66.118c0.422,0.426,0.857,0.845,1.311,1.25c1.156,0.269,1.957,1.01,2.403,1.935
	c1.771,1.289,3.717,2.441,5.819,3.443c0.907,0.09,1.629,0.447,2.168,0.963c1.854,0.763,3.815,1.412,5.853,1.957
	c0.289-0.063,0.598-0.099,0.93-0.099c1.072,0,1.915,0.353,2.535,0.907c7.217,1.426,15.271,1.54,23.461,0.149
	c-0.727-3.731-0.287-7.096,0.534-10.299l3.692-18.472c-0.12,0.124-0.236,0.25-0.349,0.382c-0.053-0.282-0.112-0.566-0.182-0.853
	c-2.315,0.393-4.99,0.708-7.804,0.854c-0.579,0.401-1.311,0.647-2.203,0.647c-0.42,0-0.803-0.058-1.153-0.157
	c-0.566,0.371-1.275,0.594-2.128,0.594c-0.793,0-1.462-0.192-2.007-0.517c-2.746,0.917-6.076,0.262-7.829-1.982
	c-2.679-0.789-5.084-1.933-6.978-3.533c-0.416,0.491-1.356,0.515-1.543-0.291c-0.117-0.501-0.179-1.006-0.212-1.514
	c-0.752-0.956-1.359-2.032-1.789-3.242c-0.548-0.64-0.838-1.464-0.909-2.312c-0.904-0.05-1.893-1.711-1.072-2.254
	c0.303-0.2,0.61-0.396,0.916-0.593c0.084-0.397,0.217-0.783,0.41-1.136c0.077-0.793,0.208-1.626,0.391-2.492
	c-0.113-1.086,0.165-2.219,0.834-3.066c1.042-3.177,2.75-6.79,5.236-10.883c-0.133-0.484,0.104-1.082,0.712-1.148
	c0.167-0.264,0.327-0.523,0.499-0.792c-0.324-0.083-0.425-0.309,0.015-0.621l-0.818,0.064c0.706-0.5,1.503-1.11,2.317-1.717
	c2.205-3.229,4.843-6.722,7.981-10.509c-0.212-0.75-0.366-0.851-1.138-0.749c-8.482,6.111-15.287,11.995-20.64,17.604
	c-0.917,1.361-2.252,3.921-3.272,5.193c-0.392,0.489-1.573,1.082-2.451,1.377c-0.519,0.66-1.016,1.314-1.493,1.965
	c0.782-0.213,1.609,0.803,0.881,1.47c-0.62,0.568-1.376,0.644-2.143,0.886c-0.148,0.046-0.285,0.054-0.407,0.033
	c-0.286,0.428-0.575,0.856-0.843,1.28c-0.06,1.331-0.701,2.627-1.923,3.284c-0.24,0.444-0.473,0.886-0.693,1.325
	c0,1.205-0.479,2.406-1.43,3.159c-1.121,2.765-1.853,5.419-2.216,7.948c0.261,0.995,0.17,2.093-0.27,3.014
	c-0.048,1.515,0.045,2.978,0.256,4.393c0.357-0.697,1.125-0.925,1.082-0.026C1.314,53.685,1,54.281,0.747,54.98
	c-0.018,0.046-0.04,0.085-0.061,0.125c0.01,0.041,0.023,0.081,0.033,0.121c0.256,0.01,0.504,0.14,0.664,0.443
	c1.468,2.79,2.159,5.94,4.792,7.885c0.41,0.303,0.298,0.609-0.031,0.795c0.706,0.049,1.367,0.62,1.367,1.233L7.008,66.118z
	 M7.67,55.606c-1.145-2.494-1.8-5.082-2.056-7.666c0.374,2.371,1.096,4.711,2.234,6.938c2.66,5.211,7.206,9.172,13.511,11.771
	c7.007,2.887,16.06,4.001,26.92,3.311l-0.184,1.81C20.247,73.633,10.816,62.465,7.67,55.606z"/>
</svg>
